:SAMPLES-PER-SECOND 30
:FULLY-SPECIFIED
:DEGREES
437
root  63.6728 38.0941 10.0483 177.641 -0.764447 178.251
RightUpLeg  -18.7424 -0.931492 -7.77242
RightLeg  37.6977 0.291869 0.036018
RightFoot  -9.08416 -0.237029 8.63974
RightToes  1.33877e-009 0 -3.6325e-017
Spine  21.4856 -1.35667 4.36024
Spine1  5.19973 1.11012 -7.54163
HEad  -16.2555 -3.60394 -5.80807
LeftShoulder1  1.25596 -2.0515 -15.8205
LeftArm  -26.5714 -49.036 -42.1465
LeftForeArm  20.1391 -36.7863 -7.15994
LeftHand  -0.190471 3.64985 12.6705
RightShoulder  0.333869 -1.15083 6.63382
RightArm  -28.3473 63.3465 24.3754
RightForeArm  -11.9157 12.1936 -0.315859
RightHand  -0.587911 6.43084 -6.09384
LeftUpLeg  -18.4634 3.09381 -2.49603
LeftLeg  16.9246 -5.68935 -1.80547
LeftFoot  5.76405 -0.671334 4.22629
LeftToes  -1.45701e-009 4.75788e-011 -4.21586e-011
438
root  63.7613 38.2756 9.82556 178.287 -1.25719 178.256
RightUpLeg  -17.488 1.10913 -8.00946
RightLeg  26.0263 -2.00658 -1.37807
RightFoot  -7.16 -0.287837 7.08791
RightToes  1.33877e-009 0 -3.6325e-017
Spine  21.6866 -1.75258 4.8123
Spine1  4.9688 0.760721 -7.34587
HEad  -17.133 -3.49476 -5.50491
LeftShoulder1  1.33036 -2.47981 -15.4166
LeftArm  -28.3532 -52.2081 -38.6573
LeftForeArm  14.9138 -32.8647 -6.42389
LeftHand  -0.338661 1.72025 10.4956
RightShoulder  0.351941 -0.749434 4.93692
RightArm  -28.9486 65.0058 21.6403
RightForeArm  -13.1997 8.58792 -0.547462
RightHand  -0.405347 5.40858 -4.66194
LeftUpLeg  -17.7891 3.05488 -2.4294
LeftLeg  14.9697 -6.21241 -1.83739
LeftFoot  6.35492 -0.698697 4.24835
LeftToes  -1.45701e-009 4.75788e-011 -4.21586e-011
439
root  63.8664 38.4946 9.68104 178.93 -2.11565 178.155
RightUpLeg  -16.9122 1.51969 -7.96978
RightLeg  17.92 -0.755017 -0.474118
RightFoot  -1.43434 -0.298375 3.31471
RightToes  1.33877e-009 0 -3.6325e-017
Spine  22.2082 -2.17454 5.50227
Spine1  4.85261 0.282504 -6.8211
HEad  -18.2971 -3.37885 -5.375
LeftShoulder1  1.28377 -2.56438 -14.2413
LeftArm  -29.1076 -55.9977 -35.8093
LeftForeArm  14.0129 -28.4306 -5.39896
LeftHand  -0.149044 3.80817 9.83501
RightShoulder  0.360636 -0.398961 3.67723
RightArm  -30.8433 66.2939 18.2838
RightForeArm  -12.8478 6.24549 -0.49126
RightHand  -0.239935 4.96612 -2.99923
LeftUpLeg  -16.6775 0.702334 -2.47215
LeftLeg  11.7648 -5.06873 -0.720346
LeftFoot  7.54004 -0.607656 3.37207
LeftToes  -1.45701e-009 4.75788e-011 -4.21586e-011
440
root  64.0845 38.5051 9.57759 179.5 -2.72569 177.967
RightUpLeg  -17.7806 0.864968 -7.66732
RightLeg  18.5178 0.979341 0.11486
RightFoot  0.677173 -0.120941 1.15973
RightToes  1.33877e-009 0 -3.6325e-017
Spine  22.7396 -2.18525 5.54986
Spine1  4.94582 0.162038 -6.32178
HEad  -20.0531 -3.39229 -5.20947
LeftShoulder1  1.30294 -3.2133 -12.3407
LeftArm  -31.0148 -59.2048 -33.112
LeftForeArm  10.5018 -23.9078 -4.50046
LeftHand  -0.0859208 4.36063 7.99465
RightShoulder  0.385007 0.204815 2.17821
RightArm  -32.6166 66.9366 14.5634
RightForeArm  -13.8478 4.93365 -0.196042
RightHand  -0.130485 4.75939 -1.78018
LeftUpLeg  -17.0393 0.266224 -2.40639
LeftLeg  11.5383 -5.25131 -0.662082
LeftFoot  7.39968 -0.512294 2.83007
LeftToes  -1.45701e-009 4.75788e-011 -4.21586e-011
441
root  64.3335 38.4517 9.56117 -179.748 -2.87793 177.72
RightUpLeg  -18.3122 0.431528 -7.76413
RightLeg  18.2627 1.28858 0.224546
RightFoot  0.164844 -0.320677 3.20139
RightToes  1.33877e-009 0 -3.6325e-017
Spine  23.3363 -1.94349 5.49857
Spine1  5.05702 0.47531 -6.32617
HEad  -22.5207 -3.51362 -4.25032
LeftShoulder1  1.41594 -4.54327 -10.3157
LeftArm  -32.7979 -61.7026 -30.6318
LeftForeArm  5.06218 -19.8732 -3.28632
LeftHand  -0.105896 3.95109 7.45449
RightShoulder  0.321428 0.0191262 0.792902
RightArm  -35.2245 68.0622 11.765
RightForeArm  -16.3145 3.98914 -0.185214
RightHand  -0.025285 4.2515 -0.595748
LeftUpLeg  -18.1363 -0.443887 -2.26449
LeftLeg  12.0772 -4.80536 -0.440725
LeftFoot  7.22204 -0.429304 2.3582
LeftToes  -1.45701e-009 4.75788e-011 -4.21586e-011
442
root  64.5306 38.4603 9.55193 -179.35 -3.24922 178.08
RightUpLeg  -18.5789 -3.4476 -6.61523
RightLeg  17.921 4.28381 1.26847
RightFoot  1.14972 -0.216767 2.04496
RightToes  1.33877e-009 0 -3.6325e-017
Spine  24.1213 -2.4127 6.38911
Spine1  5.41708 0.270275 -6.68114
HEad  -24.5997 -2.68907 -4.32633
LeftShoulder1  1.34843 -5.09172 -8.15816
LeftArm  -33.5476 -63.9108 -27.4303
LeftForeArm  -2.0489 -16.4217 -1.71376
LeftHand  -0.108221 3.71433 6.04222
RightShoulder  0.27868 0.0245191 -0.666301
RightArm  -38.0333 69.629 10.1268
RightForeArm  -19.353 3.06357 -0.381974
RightHand  0.0892978 4.5674 0.754981
LeftUpLeg  -18.6977 -0.678757 -1.59478
LeftLeg  12.245 -5.09376 -0.468811
LeftFoot  7.10862 -0.367129 1.9924
LeftToes  -1.45701e-009 4.75788e-011 -4.21586e-011
443
root  64.7994 38.4181 9.58446 -178.843 -3.66557 178.328
RightUpLeg  -19.3541 -5.7368 -5.76721
RightLeg  18.3156 5.88465 1.92216
RightFoot  1.28909 -0.192952 1.82153
RightToes  1.33877e-009 0 -3.6325e-017
Spine  24.8323 -2.46861 6.33054
Spine1  5.63323 0.0423961 -5.93918
HEad  -26.1817 -2.16303 -4.34784
LeftShoulder1  1.24579 -5.40692 -6.31419
LeftArm  -34.0729 -66.0387 -24.4163
LeftForeArm  -8.12282 -13.4302 -0.46721
LeftHand  -0.0339672 4.94365 3.56146
RightShoulder  0.233914 -0.029098 -1.79423
RightArm  -40.6514 71.2034 8.08696
RightForeArm  -23.0669 2.49084 -0.263347
RightHand  0.13959 4.38992 1.36769
LeftUpLeg  -19.6691 -0.670227 -0.914944
LeftLeg  12.8272 -5.54666 -0.693203
LeftFoot  6.83531 -0.2703 1.4308
LeftToes  -1.45701e-009 4.75788e-011 -4.21586e-011
